# Blender v2.78 (sub 0) OBJ File: 'palyground.blend'
# www.blender.org
o Plane
v -100.000023 0.000000 100.000023
v 100.000023 0.000000 100.000023
v -100.000023 0.000000 -100.000023
v 100.000023 0.000000 -100.000023
v -100.000023 0.000000 -80.000023
v -100.000023 0.000000 -60.000015
v -100.000023 0.000000 -40.000011
v -100.000023 0.000000 -20.000006
v -100.000023 0.000000 0.000000
v -100.000023 0.000000 20.000006
v -100.000023 0.000000 40.000011
v -100.000023 0.000000 60.000015
v -100.000023 0.000000 80.000023
v -80.000023 0.000000 100.000023
v -60.000015 0.000000 100.000023
v -40.000011 0.000000 100.000023
v -20.000006 0.000000 100.000023
v 0.000000 0.000000 100.000023
v 20.000006 0.000000 100.000023
v 40.000011 0.000000 100.000023
v 60.000015 0.000000 100.000023
v 80.000023 0.000000 100.000023
v 100.000023 0.000000 80.000023
v 100.000023 0.000000 60.000015
v 100.000023 0.000000 40.000011
v 100.000023 0.000000 20.000006
v 100.000023 0.000000 0.000000
v 100.000023 0.000000 -20.000006
v 100.000023 0.000000 -40.000011
v 100.000023 0.000000 -60.000015
v 100.000023 0.000000 -80.000023
v 80.000023 0.000000 -100.000023
v 60.000015 0.000000 -100.000023
v 40.000011 0.000000 -100.000023
v 20.000006 0.000000 -100.000023
v 0.000000 0.000000 -100.000023
v -20.000006 0.000000 -100.000023
v -40.000011 0.000000 -100.000023
v -60.000015 0.000000 -100.000023
v -80.000023 0.000000 -100.000023
v -80.000023 0.000000 80.000023
v -80.000023 0.000000 60.000015
v -80.000023 0.000000 40.000011
v -80.000023 0.000000 20.000006
v -80.000023 0.000000 0.000000
v -80.000023 0.000000 -20.000006
v -80.000023 0.000000 -40.000011
v -80.000023 0.000000 -60.000015
v -80.000023 0.000000 -80.000023
v -60.000015 0.000000 80.000023
v -60.000015 0.000000 60.000015
v -60.000015 0.000000 40.000011
v -60.000015 0.000000 20.000006
v -60.000015 0.000000 0.000000
v -60.000015 0.000000 -20.000006
v -60.000015 0.000000 -40.000011
v -60.000015 0.000000 -60.000015
v -60.000015 0.000000 -80.000023
v -40.000011 0.000000 80.000023
v -40.000011 0.000000 60.000015
v -40.000011 0.000000 40.000011
v -40.000011 0.000000 20.000006
v -40.000011 0.000000 0.000000
v -40.000011 0.000000 -20.000006
v -40.000011 0.000000 -40.000011
v -40.000011 0.000000 -60.000015
v -40.000011 0.000000 -80.000023
v -20.000006 0.000000 80.000023
v -20.000006 0.000000 60.000015
v -20.000006 0.000000 40.000011
v -20.000006 0.000000 20.000006
v -20.000006 0.000000 0.000000
v -20.000006 0.000000 -20.000006
v -20.000006 0.000000 -40.000011
v -20.000006 0.000000 -60.000015
v -20.000006 0.000000 -80.000023
v 0.000000 0.000000 80.000023
v 0.000000 0.000000 60.000015
v 0.000000 0.000000 40.000011
v 0.000000 0.000000 20.000006
v 0.000000 0.000000 0.000000
v 0.000000 0.000000 -20.000006
v 0.000000 0.000000 -40.000011
v 0.000000 0.000000 -60.000015
v 0.000000 0.000000 -80.000023
v 20.000006 0.000000 80.000023
v 20.000006 0.000000 60.000015
v 20.000006 0.000000 40.000011
v 20.000006 0.000000 20.000006
v 20.000006 0.000000 0.000000
v 20.000006 0.000000 -20.000006
v 20.000006 0.000000 -40.000011
v 20.000006 0.000000 -60.000015
v 20.000006 0.000000 -80.000023
v 40.000011 0.000000 80.000023
v 40.000011 0.000000 60.000015
v 40.000011 0.000000 40.000011
v 40.000011 0.000000 20.000006
v 40.000011 0.000000 0.000000
v 40.000011 0.000000 -20.000006
v 40.000011 0.000000 -40.000011
v 40.000011 0.000000 -60.000015
v 40.000011 0.000000 -80.000023
v 60.000015 0.000000 80.000023
v 60.000015 0.000000 60.000015
v 60.000015 0.000000 40.000011
v 60.000015 0.000000 20.000006
v 60.000015 0.000000 0.000000
v 60.000015 0.000000 -20.000006
v 60.000015 0.000000 -40.000011
v 60.000015 0.000000 -60.000015
v 60.000015 0.000000 -80.000023
v 80.000023 0.000000 80.000023
v 80.000023 0.000000 60.000015
v 80.000023 0.000000 40.000011
v 80.000023 0.000000 20.000006
v 80.000023 0.000000 0.000000
v 80.000023 0.000000 -20.000006
v 80.000023 0.000000 -40.000011
v 80.000023 0.000000 -60.000015
v 80.000023 0.000000 -80.000023
v -4.180789 1.036879 -2.612193
v -4.258972 1.983592 -2.326472
v -4.180789 1.036879 -4.628690
v -4.258972 1.983592 -4.342968
v 2.124561 -1.944553 -2.326472
v 2.858766 -0.066468 -2.326472
v 2.124561 -1.944553 -4.342968
v 2.858766 -0.066468 -4.342968
v -2.468649 1.036158 -4.451180
v -2.291740 1.947031 -4.342968
v -2.468650 1.036158 -2.434682
v -2.291740 1.947031 -2.326472
v -18.606579 3.476818 -2.137947
v -18.588696 3.605469 -2.076473
v -10.431215 3.476818 -4.516285
v -10.413331 3.605469 -4.454811
v -16.364111 -0.518225 5.570374
v -16.346228 -0.389575 5.631848
v -8.188746 -0.518225 3.192035
v -8.170863 -0.389575 3.253510
v -0.330757 1.794802 11.928990
v -0.634087 3.320307 21.773924
v 0.627277 1.612465 11.986760
v 0.323947 3.137972 21.831696
v 1.530042 1.248676 12.070947
v 1.226713 2.774183 21.915876
v 2.342844 0.717415 12.178308
v 2.039515 2.242921 22.023245
v 3.034449 0.039097 12.304728
v 2.731119 1.564602 22.149658
v 3.578279 -0.760212 12.445336
v 3.274949 0.765295 22.290270
v 3.953432 -1.649791 12.594740
v 3.650102 -0.124285 22.439674
v 4.145494 -2.595457 12.747190
v 3.842164 -1.069951 22.592123
v 4.147084 -3.560868 12.896834
v 3.843754 -2.035361 22.741768
v 3.958139 -4.508924 13.037917
v 3.654809 -2.983417 22.882851
v 3.585922 -5.403190 13.165018
v 3.282592 -3.877684 23.009953
v 3.044737 -6.209302 13.273255
v 2.741407 -4.683796 23.118189
v 2.355379 -6.896282 13.358463
v 2.052049 -5.370775 23.203402
v 1.544342 -7.437727 13.417377
v 1.241013 -5.912221 23.262306
v 0.642794 -7.812833 13.447720
v 0.339464 -6.287325 23.292658
v -0.314621 -8.007181 13.448337
v -0.617951 -6.481674 23.293270
v -1.291108 -8.013306 13.419199
v -1.594438 -6.487798 23.264133
v -2.249143 -7.830969 13.361429
v -2.552473 -6.305463 23.206364
v -3.151908 -7.467179 13.277242
v -3.455238 -5.941672 23.122179
v -3.964711 -6.935915 13.169882
v -4.268040 -5.410411 23.014811
v -4.656315 -6.257598 13.043460
v -4.959645 -4.732091 22.888397
v -5.200143 -5.458289 12.902853
v -5.503473 -3.932783 22.747787
v -5.575297 -4.568709 12.753448
v -5.878626 -3.043203 22.598383
v -5.767357 -3.623043 12.600997
v -6.070687 -2.097536 22.445930
v -5.768946 -2.657631 12.451355
v -6.072277 -1.132125 22.296289
v -5.580001 -1.709576 12.310269
v -5.883331 -0.184069 22.155203
v -5.207783 -0.815308 12.183170
v -5.511113 0.710198 22.028105
v -4.666596 -0.009196 12.074934
v -4.969926 1.516310 21.919868
v -3.977239 0.677782 11.989726
v -4.280568 2.203289 21.834665
v -3.166201 1.219227 11.930813
v -3.469531 2.744734 21.775749
v -2.264652 1.594331 11.900470
v -2.567981 3.119837 21.745399
v -1.307237 1.788678 11.899853
v -1.610567 3.314184 21.744787
vn 0.0000 1.0000 0.0000
vn -0.9966 -0.0823 0.0000
vn 0.0188 -0.0073 -0.9998
vn 0.9314 -0.3641 0.0000
vn -0.0987 -0.2950 0.9504
vn -0.5444 -0.8389 -0.0000
vn 0.0186 0.9998 0.0000
vn 0.3641 0.9314 0.0000
vn -0.0004 -1.0000 0.0000
vn -0.0188 0.0073 0.9998
vn 0.0987 0.2950 -0.9504
vn -0.2501 0.4455 -0.8596
vn 0.9602 0.0000 -0.2793
vn 0.2501 -0.4455 0.8596
vn -0.9602 -0.0000 0.2793
vn -0.1245 -0.8953 -0.4278
vn 0.1245 0.8953 0.4278
vn 0.1934 0.9704 -0.1444
vn 0.3810 0.9154 -0.1301
vn 0.5540 0.8251 -0.1108
vn 0.7056 0.7032 -0.0872
vn 0.8302 0.5542 -0.0603
vn 0.9228 0.3840 -0.0311
vn 0.9800 0.1989 -0.0006
vn 0.9995 0.0063 0.0298
vn 0.9806 -0.1866 0.0591
vn 0.9241 -0.3724 0.0862
vn 0.8320 -0.5438 0.1099
vn 0.7079 -0.6943 0.1294
vn 0.5567 -0.8182 0.1439
vn 0.3840 -0.9106 0.1529
vn 0.1966 -0.9680 0.1561
vn 0.0016 -0.9882 0.1532
vn -0.1934 -0.9704 0.1444
vn -0.3810 -0.9154 0.1301
vn -0.5540 -0.8251 0.1108
vn -0.7056 -0.7032 0.0872
vn -0.8302 -0.5542 0.0603
vn -0.9228 -0.3840 0.0311
vn -0.9800 -0.1989 0.0006
vn -0.9995 -0.0063 -0.0298
vn -0.9806 0.1866 -0.0591
vn -0.9241 0.3724 -0.0862
vn -0.8320 0.5438 -0.1099
vn -0.7079 0.6943 -0.1294
vn -0.5567 0.8182 -0.1439
vn -0.3840 0.9106 -0.1529
vn -0.0304 0.1531 0.9877
vn -0.1966 0.9680 -0.1561
vn -0.0016 0.9882 -0.1532
vn 0.0304 -0.1531 -0.9877
vn 0.0429 0.1096 -0.9930
vn -0.0022 -0.1176 0.9931
vn -0.0429 -0.1096 0.9930
vn 0.0022 0.1176 -0.9931
vn -0.0304 0.1530 0.9878
vn -0.0305 0.1531 0.9877
vn -0.0305 0.1530 0.9878
vn -0.0304 0.1530 0.9877
vn 0.0304 -0.1530 -0.9878
vn 0.0304 -0.1530 -0.9877
vn 0.0305 -0.1530 -0.9877
vn 0.0305 -0.1531 -0.9877
vn 0.0305 -0.1530 -0.9878
s off
f 31//1 32//1 121//1
f 49//1 3//1 5//1
f 58//1 40//1 49//1
f 67//1 39//1 58//1
f 76//1 38//1 67//1
f 85//1 37//1 76//1
f 94//1 36//1 85//1
f 103//1 35//1 94//1
f 112//1 34//1 103//1
f 121//1 33//1 112//1
f 14//1 13//1 1//1
f 41//1 12//1 13//1
f 42//1 11//1 12//1
f 43//1 10//1 11//1
f 44//1 9//1 10//1
f 45//1 8//1 9//1
f 46//1 7//1 8//1
f 47//1 6//1 7//1
f 48//1 5//1 6//1
f 15//1 41//1 14//1
f 50//1 42//1 41//1
f 51//1 43//1 42//1
f 52//1 44//1 43//1
f 53//1 45//1 44//1
f 54//1 46//1 45//1
f 55//1 47//1 46//1
f 56//1 48//1 47//1
f 57//1 49//1 48//1
f 16//1 50//1 15//1
f 59//1 51//1 50//1
f 60//1 52//1 51//1
f 61//1 53//1 52//1
f 62//1 54//1 53//1
f 63//1 55//1 54//1
f 64//1 56//1 55//1
f 65//1 57//1 56//1
f 66//1 58//1 57//1
f 17//1 59//1 16//1
f 68//1 60//1 59//1
f 69//1 61//1 60//1
f 70//1 62//1 61//1
f 71//1 63//1 62//1
f 72//1 64//1 63//1
f 73//1 65//1 64//1
f 74//1 66//1 65//1
f 75//1 67//1 66//1
f 18//1 68//1 17//1
f 77//1 69//1 68//1
f 78//1 70//1 69//1
f 79//1 71//1 70//1
f 80//1 72//1 71//1
f 81//1 73//1 72//1
f 82//1 74//1 73//1
f 83//1 75//1 74//1
f 84//1 76//1 75//1
f 19//1 77//1 18//1
f 86//1 78//1 77//1
f 87//1 79//1 78//1
f 88//1 80//1 79//1
f 89//1 81//1 80//1
f 90//1 82//1 81//1
f 91//1 83//1 82//1
f 92//1 84//1 83//1
f 93//1 85//1 84//1
f 20//1 86//1 19//1
f 95//1 87//1 86//1
f 96//1 88//1 87//1
f 97//1 89//1 88//1
f 98//1 90//1 89//1
f 99//1 91//1 90//1
f 100//1 92//1 91//1
f 101//1 93//1 92//1
f 102//1 94//1 93//1
f 21//1 95//1 20//1
f 104//1 96//1 95//1
f 105//1 97//1 96//1
f 106//1 98//1 97//1
f 107//1 99//1 98//1
f 108//1 100//1 99//1
f 109//1 101//1 100//1
f 110//1 102//1 101//1
f 111//1 103//1 102//1
f 22//1 104//1 21//1
f 113//1 105//1 104//1
f 114//1 106//1 105//1
f 115//1 107//1 106//1
f 116//1 108//1 107//1
f 117//1 109//1 108//1
f 118//1 110//1 109//1
f 119//1 111//1 110//1
f 120//1 112//1 111//1
f 2//1 113//1 22//1
f 23//1 114//1 113//1
f 24//1 115//1 114//1
f 25//1 116//1 115//1
f 26//1 117//1 116//1
f 27//1 118//1 117//1
f 28//1 119//1 118//1
f 29//1 120//1 119//1
f 30//1 121//1 120//1
f 122//2 125//2 124//2
f 130//3 129//3 128//3
f 129//4 126//4 128//4
f 132//5 123//5 122//5
f 128//6 132//6 130//6
f 125//7 133//7 131//7
f 131//8 127//8 129//8
f 130//9 122//9 124//9
f 127//10 132//10 126//10
f 125//11 130//11 124//11
f 134//12 137//12 136//12
f 137//13 140//13 136//13
f 140//14 139//14 138//14
f 138//15 135//15 134//15
f 136//16 138//16 134//16
f 137//17 139//17 141//17
f 142//18 145//18 144//18
f 144//19 147//19 146//19
f 147//20 148//20 146//20
f 149//21 150//21 148//21
f 150//22 153//22 152//22
f 153//23 154//23 152//23
f 154//24 157//24 156//24
f 157//25 158//25 156//25
f 159//26 160//26 158//26
f 161//27 162//27 160//27
f 163//28 164//28 162//28
f 165//29 166//29 164//29
f 166//30 169//30 168//30
f 169//31 170//31 168//31
f 170//32 173//32 172//32
f 172//33 175//33 174//33
f 175//34 176//34 174//34
f 176//35 179//35 178//35
f 179//36 180//36 178//36
f 181//37 182//37 180//37
f 183//38 184//38 182//38
f 184//39 187//39 186//39
f 187//40 188//40 186//40
f 189//41 190//41 188//41
f 190//42 193//42 192//42
f 193//43 194//43 192//43
f 194//44 197//44 196//44
f 197//45 198//45 196//45
f 198//46 201//46 200//46
f 200//47 203//47 202//47
f 179//48 163//48 195//48
f 203//49 204//49 202//49
f 205//50 142//50 204//50
f 172//51 196//51 204//51
f 31//1 4//1 32//1
f 49//1 40//1 3//1
f 58//1 39//1 40//1
f 67//1 38//1 39//1
f 76//1 37//1 38//1
f 85//1 36//1 37//1
f 94//1 35//1 36//1
f 103//1 34//1 35//1
f 112//1 33//1 34//1
f 121//1 32//1 33//1
f 14//1 41//1 13//1
f 41//1 42//1 12//1
f 42//1 43//1 11//1
f 43//1 44//1 10//1
f 44//1 45//1 9//1
f 45//1 46//1 8//1
f 46//1 47//1 7//1
f 47//1 48//1 6//1
f 48//1 49//1 5//1
f 15//1 50//1 41//1
f 50//1 51//1 42//1
f 51//1 52//1 43//1
f 52//1 53//1 44//1
f 53//1 54//1 45//1
f 54//1 55//1 46//1
f 55//1 56//1 47//1
f 56//1 57//1 48//1
f 57//1 58//1 49//1
f 16//1 59//1 50//1
f 59//1 60//1 51//1
f 60//1 61//1 52//1
f 61//1 62//1 53//1
f 62//1 63//1 54//1
f 63//1 64//1 55//1
f 64//1 65//1 56//1
f 65//1 66//1 57//1
f 66//1 67//1 58//1
f 17//1 68//1 59//1
f 68//1 69//1 60//1
f 69//1 70//1 61//1
f 70//1 71//1 62//1
f 71//1 72//1 63//1
f 72//1 73//1 64//1
f 73//1 74//1 65//1
f 74//1 75//1 66//1
f 75//1 76//1 67//1
f 18//1 77//1 68//1
f 77//1 78//1 69//1
f 78//1 79//1 70//1
f 79//1 80//1 71//1
f 80//1 81//1 72//1
f 81//1 82//1 73//1
f 82//1 83//1 74//1
f 83//1 84//1 75//1
f 84//1 85//1 76//1
f 19//1 86//1 77//1
f 86//1 87//1 78//1
f 87//1 88//1 79//1
f 88//1 89//1 80//1
f 89//1 90//1 81//1
f 90//1 91//1 82//1
f 91//1 92//1 83//1
f 92//1 93//1 84//1
f 93//1 94//1 85//1
f 20//1 95//1 86//1
f 95//1 96//1 87//1
f 96//1 97//1 88//1
f 97//1 98//1 89//1
f 98//1 99//1 90//1
f 99//1 100//1 91//1
f 100//1 101//1 92//1
f 101//1 102//1 93//1
f 102//1 103//1 94//1
f 21//1 104//1 95//1
f 104//1 105//1 96//1
f 105//1 106//1 97//1
f 106//1 107//1 98//1
f 107//1 108//1 99//1
f 108//1 109//1 100//1
f 109//1 110//1 101//1
f 110//1 111//1 102//1
f 111//1 112//1 103//1
f 22//1 113//1 104//1
f 113//1 114//1 105//1
f 114//1 115//1 106//1
f 115//1 116//1 107//1
f 116//1 117//1 108//1
f 117//1 118//1 109//1
f 118//1 119//1 110//1
f 119//1 120//1 111//1
f 120//1 121//1 112//1
f 2//1 23//1 113//1
f 23//1 24//1 114//1
f 24//1 25//1 115//1
f 25//1 26//1 116//1
f 26//1 27//1 117//1
f 27//1 28//1 118//1
f 28//1 29//1 119//1
f 29//1 30//1 120//1
f 30//1 31//1 121//1
f 122//2 123//2 125//2
f 130//52 131//52 129//52
f 129//4 127//4 126//4
f 132//53 133//53 123//53
f 128//6 126//6 132//6
f 125//7 123//7 133//7
f 131//8 133//8 127//8
f 130//9 132//9 122//9
f 127//54 133//54 132//54
f 125//55 131//55 130//55
f 134//12 135//12 137//12
f 137//13 141//13 140//13
f 140//14 141//14 139//14
f 138//15 139//15 135//15
f 136//16 140//16 138//16
f 137//17 135//17 139//17
f 142//18 143//18 145//18
f 144//19 145//19 147//19
f 147//20 149//20 148//20
f 149//21 151//21 150//21
f 150//22 151//22 153//22
f 153//23 155//23 154//23
f 154//24 155//24 157//24
f 157//25 159//25 158//25
f 159//26 161//26 160//26
f 161//27 163//27 162//27
f 163//28 165//28 164//28
f 165//29 167//29 166//29
f 166//30 167//30 169//30
f 169//31 171//31 170//31
f 170//32 171//32 173//32
f 172//33 173//33 175//33
f 175//34 177//34 176//34
f 176//35 177//35 179//35
f 179//36 181//36 180//36
f 181//37 183//37 182//37
f 183//38 185//38 184//38
f 184//39 185//39 187//39
f 187//40 189//40 188//40
f 189//41 191//41 190//41
f 190//42 191//42 193//42
f 193//43 195//43 194//43
f 194//44 195//44 197//44
f 197//45 199//45 198//45
f 198//46 199//46 201//46
f 200//47 201//47 203//47
f 147//56 145//56 143//56
f 143//56 205//56 203//56
f 203//48 201//48 199//48
f 199//57 197//57 195//57
f 195//57 193//57 191//57
f 191//48 189//48 195//48
f 187//48 185//48 183//48
f 183//48 181//48 187//48
f 179//48 177//48 175//48
f 175//56 173//56 171//56
f 171//56 169//56 163//56
f 167//56 165//56 163//56
f 163//48 161//48 159//48
f 159//57 157//57 163//57
f 155//48 153//48 151//48
f 151//58 149//58 147//58
f 147//56 143//56 203//56
f 203//48 199//48 147//48
f 195//48 189//48 187//48
f 187//59 181//59 179//59
f 179//59 175//59 171//59
f 169//57 167//57 163//57
f 163//48 157//48 155//48
f 155//48 151//48 163//48
f 147//59 199//59 195//59
f 195//48 187//48 179//48
f 179//48 171//48 163//48
f 163//48 151//48 147//48
f 147//48 195//48 163//48
f 203//49 205//49 204//49
f 205//50 143//50 142//50
f 204//60 142//60 144//60
f 144//60 146//60 148//60
f 148//61 150//61 156//61
f 152//62 154//62 156//62
f 156//63 158//63 160//63
f 160//51 162//51 156//51
f 164//60 166//60 168//60
f 168//60 170//60 172//60
f 172//60 174//60 176//60
f 176//51 178//51 172//51
f 180//64 182//64 184//64
f 184//61 186//61 188//61
f 188//51 190//51 192//51
f 192//60 194//60 196//60
f 196//61 198//61 204//61
f 200//60 202//60 204//60
f 204//51 144//51 156//51
f 150//51 152//51 156//51
f 156//51 162//51 164//51
f 164//51 168//51 156//51
f 172//60 178//60 180//60
f 180//51 184//51 188//51
f 188//51 192//51 196//51
f 198//51 200//51 204//51
f 144//51 148//51 156//51
f 156//51 168//51 172//51
f 172//51 180//51 188//51
f 188//51 196//51 172//51
f 204//51 156//51 172//51
